# xmcd CD database file
#
# Track frame offsets:
#	150
#	23747
#	73172
#	95427
#	136620
#	149567
#
# Disc length: 2583 seconds
#
# Revision: 2
# Processed by: cddbd v1.5.2PL0 Copyright (c) Steve Scherf et al.
# Submitted via: CDex 1.70beta2
#
DISCID=500a1506
DTITLE=Chick Corea - Light As A Feather
DYEAR=1973
DGENRE=Jazz
TTITLE0=You're Everything
TTITLE1=Light As a Feather
TTITLE2=Captain Marvel
TTITLE3=500 Miles High
TTITLE4=Children's Song
TTITLE5=Spain
EXTD=YEAR: 1973
EXTT0=
EXTT1=
EXTT2=
EXTT3=
EXTT4=
EXTT5=
PLAYORDER=
